<?xml version="1.0" standalone="no"?>
<!DOCTYPE svg PUBLIC "-//W3C//DTD SVG 20010904//EN"
 "http://www.w3.org/TR/2001/REC-SVG-20010904/DTD/svg10.dtd">
<svg version="1.0" xmlns="http://www.w3.org/2000/svg"
 width="60.000000pt" height="60.000000pt" viewBox="0 0 60.000000 60.000000"
 preserveAspectRatio="xMidYMid meet">

<g transform="translate(0.000000,60.000000) scale(0.100000,-0.100000)"
fill="#000000" stroke="none">
<path d="M325 508 c-6 -19 -74 -369 -77 -398 -2 -16 2 -25 12 -25 10 0 25 52
56 210 23 116 40 213 37 218 -7 11 -23 8 -28 -5z"/>
<path d="M113 403 c-16 -21 -40 -53 -52 -71 l-23 -32 46 -65 c53 -73 64 -82
72 -61 3 8 -12 38 -36 70 l-41 56 41 55 c22 30 40 59 40 64 0 25 -21 18 -47
-16z"/>
<path d="M445 430 c-3 -6 13 -37 36 -70 l42 -60 -42 -60 c-38 -53 -45 -80 -22
-80 9 0 101 127 101 140 0 13 -92 140 -101 140 -4 0 -11 -5 -14 -10z"/>
</g>
</svg>
